HIERARCHY
ROOT Hips
{
	OFFSET -0.179506 -22.333345 2.821913
	CHANNELS 6 Xposition Yposition Zposition Zrotation Yrotation Xrotation 
	JOINT LeftUpLeg
	{
		OFFSET 6.951974 -9.140623 -0.681533
		CHANNELS 3 Zrotation Yrotation Xrotation
		JOINT LeftLeg
		{
			OFFSET 3.427654 -37.519855 -0.449580
			CHANNELS 3 Zrotation Yrotation Xrotation
			JOINT LeftFoot
			{
				OFFSET -1.359570 -39.796059 -4.369333
				CHANNELS 3 Zrotation Yrotation Xrotation
				JOINT LeftToe
				{
					OFFSET 2.635814 -5.579078 11.928840
					CHANNELS 3 Zrotation Yrotation Xrotation
					End Site
					{
						OFFSET 0.000000 0.000000 0.000000
					}
				}
			}
		}
	}
	JOINT RightUpLeg
	{
		OFFSET -6.767048 -9.052170 -0.431982
		CHANNELS 3 Zrotation Yrotation Xrotation
		JOINT RightLeg
		{
			OFFSET -3.829005 -38.256897 -0.885003
			CHANNELS 3 Zrotation Yrotation Xrotation
			JOINT RightFoot
			{
				OFFSET 1.577377 -39.841461 -4.231180
				CHANNELS 3 Zrotation Yrotation Xrotation
				JOINT RightToe
				{
					OFFSET -2.537174 -4.814398 12.334795
					CHANNELS 3 Zrotation Yrotation Xrotation
					End Site
					{
						OFFSET 0.000000 0.000000 0.000000
					}
				}
			}
		}
	}
	JOINT Spine
	{
		OFFSET -0.253288 10.896323 -2.669631
		CHANNELS 3 Zrotation Yrotation Xrotation
		JOINT Spine1
		{
			OFFSET 0.548704 13.518043 0.109247
			CHANNELS 3 Zrotation Yrotation Xrotation
			JOINT Spine2
			{
				OFFSET 0.145701 5.292222 2.542457
				CHANNELS 3 Zrotation Yrotation Xrotation
				JOINT Neck
				{
					OFFSET -0.277840 21.387037 -4.285703
					CHANNELS 3 Zrotation Yrotation Xrotation
					JOINT Head
					{
						OFFSET 0.515184 6.496960 5.134897
						CHANNELS 3 Zrotation Yrotation Xrotation
						End Site
						{
							OFFSET 0.000000 0.000000 0.000000
						}
					}
				}
				JOINT LeftShoulder
				{
					OFFSET 7.884473 12.174932 -3.408961
					CHANNELS 3 Zrotation Yrotation Xrotation
					JOINT LeftArm
					{
						OFFSET 9.097692 3.046888 -0.886815
						CHANNELS 3 Zrotation Yrotation Xrotation
						JOINT LeftForeArm
						{
							OFFSET 25.961220 -1.277207 -2.745643
							CHANNELS 3 Zrotation Yrotation Xrotation
							JOINT LeftHand
							{
								OFFSET 24.923361 0.898606 -0.117091
								CHANNELS 3 Zrotation Yrotation Xrotation
								End Site
								{
									OFFSET 0.000000 0.000000 0.000000
								}
							}
						}
					}
				}
				JOINT RightShoulder
				{
					OFFSET -8.175920 11.883285 -3.861528
					CHANNELS 3 Zrotation Yrotation Xrotation
					JOINT RightArm
					{
						OFFSET -9.601238 3.255117 -0.914307
						CHANNELS 3 Zrotation Yrotation Xrotation
						JOINT RightForeArm
						{
							OFFSET -25.374195 -1.332924 -2.140099
							CHANNELS 3 Zrotation Yrotation Xrotation
							JOINT RightHand
							{
								OFFSET -25.529810 0.777228 -0.555919
								CHANNELS 3 Zrotation Yrotation Xrotation
								End Site
								{
									OFFSET 0.000000 0.000000 0.000000
								}
							}
						}
					}
				}
			}
		}
	}
}
MOTION
Frames: 10
Frame Time: 0.033333
-0.179506 101.737900 2.821913 0.670984 -9.247787 -0.615873 -4.818930 -2.197805 -0.931884 1.041921 1.138698 -3.121822 1.005382 5.862682 -6.637185 3.162617 1.982213 2.058203 0.400317 0.075960 -5.597622 -3.788824 -2.159586 4.765032 1.762583 -5.552695 -4.208539 4.771000 -2.640904 1.161996 -3.665533 3.616461 6.918280 2.465896 -2.389208 5.291287 -3.887821 -1.076830 -5.698071 -1.489160 -8.648018 2.670892 -0.448112 -12.635512 3.912837 -21.747632 0.377963 3.620536 -53.701793 -13.173597 14.070873 -1.791838 -25.819719 12.902103 -6.106670 -10.724048 0.349507 15.746022 5.514360 0.945309 59.802641 1.410915 22.784742 1.350353 39.249278 12.752525 2.919310 7.964518 -5.077926 
-0.014422 101.745941 2.633910 0.689646 -8.951797 -0.550269 -4.974255 -2.129547 -1.011863 1.087130 1.373791 -3.411711 0.860544 5.547802 -6.391490 3.232158 2.016182 2.111806 0.318036 0.105478 -5.923532 -3.873448 -2.286703 4.986467 1.768500 -5.755234 -3.992383 4.809396 -2.705471 1.233723 -3.707407 3.579814 7.123116 2.436819 -2.386129 5.337700 -3.967718 -1.066397 -5.804816 -1.592812 -8.680678 2.715329 -0.491190 -12.615344 3.840566 -21.754265 0.158199 3.604367 -53.514113 -13.289011 14.122453 -1.937643 -26.151405 13.111014 -6.662238 -10.845472 0.694339 15.760098 5.635009 0.934087 59.624996 1.338719 22.733250 1.264684 39.511783 12.781080 3.678499 8.070027 -4.842913 
0.125766 101.745316 2.392376 0.815538 -8.807257 -0.566473 -5.218794 -2.171381 -1.146031 1.131968 1.524497 -3.517568 0.792164 5.486939 -6.167579 3.306426 2.033634 2.138102 0.152377 0.204588 -6.553725 -4.000159 -2.430408 5.806136 1.794867 -5.928730 -3.996445 4.885051 -2.771597 1.264203 -3.768304 3.525090 7.303066 2.382949 -2.422580 5.341355 -4.068351 -1.063819 -5.869529 -1.739939 -8.546908 2.798995 -0.516230 -12.444043 3.799944 -21.599345 -0.115327 3.546762 -53.217772 -13.545740 14.184595 -2.085058 -26.399045 13.295185 -6.883793 -10.973794 0.850650 15.774522 5.685780 0.861860 59.430708 1.258714 22.722627 1.148910 39.899399 12.612862 4.120943 8.163164 -4.861674 
0.229910 101.745316 2.077102 0.930465 -8.769692 -0.560488 -5.409009 -2.297313 -1.303757 1.192781 1.528350 -3.701519 0.733213 5.610544 -5.844997 3.328735 2.041524 2.163747 -0.007185 0.423415 -7.395889 -4.077578 -2.560669 6.864844 1.871128 -6.138363 -4.001194 4.923874 -2.809600 1.291647 -3.834604 3.405427 7.493332 2.347422 -2.471612 5.293506 -4.118818 -1.064198 -5.892518 -1.987032 -8.396821 2.827982 -0.512175 -12.218145 3.722642 -21.343802 -0.465040 3.433751 -52.951688 -13.830103 14.237752 -2.271080 -26.660982 13.495244 -6.808348 -11.123423 0.860417 15.746066 5.683218 0.768240 59.145943 1.182015 22.751237 1.003965 40.401252 12.259108 4.332020 8.236289 -5.087791 
0.320321 101.744766 1.613060 1.090950 -8.649963 -0.584520 -5.626303 -2.601524 -1.585069 1.315141 1.190593 -3.790059 0.641050 5.979498 -5.446539 3.363970 2.035712 2.142952 -0.216154 0.798200 -8.628353 -4.161664 -2.689046 8.525743 1.974779 -6.552612 -4.044467 4.924971 -2.831011 1.322099 -3.875376 3.253702 7.821601 2.276076 -2.522437 5.145739 -4.142255 -1.038880 -5.904213 -2.276418 -8.234232 2.786754 -0.416158 -11.950005 3.467214 -20.989035 -0.979628 3.269671 -52.687530 -14.224721 14.273815 -2.330010 -26.977432 13.360197 -6.566183 -11.369621 0.829543 15.584319 5.678705 0.700216 58.826884 0.983819 22.723011 0.723652 41.059681 11.836543 4.560252 8.293164 -5.377088 
0.384735 101.726753 0.921610 1.229487 -8.769290 -0.604334 -5.734431 -2.979457 -2.073908 1.415123 0.781451 -3.751842 0.541201 6.510726 -5.012966 3.426364 2.035583 2.078466 -0.466484 1.161782 -10.450475 -4.106692 -2.977367 10.849066 2.220328 -6.768435 -4.021475 4.946760 -2.805653 1.374002 -3.889648 3.047236 8.316921 2.173385 -2.546167 4.909949 -4.141455 -1.009575 -5.861282 -2.670429 -7.937125 2.620337 -0.387347 -11.715776 3.081908 -20.546849 -1.658001 3.150428 -52.402133 -14.669862 14.255656 -2.441864 -27.443587 13.213905 -5.938682 -11.695296 0.664664 15.294657 5.726746 0.619163 58.574530 0.793462 22.710793 0.381596 41.823670 11.446429 4.465747 8.362537 -5.595817 
0.638876 101.651886 -0.096241 1.466732 -8.758688 -0.796655 -5.956375 -3.459857 -2.760743 1.335486 0.349038 -3.442634 0.487603 7.055204 -4.554999 3.727847 2.045598 1.943642 -1.070845 1.549224 -13.279080 -3.962291 -3.552645 14.662615 2.520421 -7.187080 -3.640551 5.013649 -2.776961 1.407685 -3.945560 2.702077 9.092263 2.006214 -2.598446 4.626546 -4.210711 -1.017218 -5.780476 -3.150109 -7.765868 2.219152 -0.430927 -11.510006 2.538186 -20.213698 -2.384970 2.969178 -51.857627 -15.217345 14.229525 -2.491550 -28.235371 12.865313 -5.205066 -11.931192 0.682233 15.246227 5.730194 0.481839 57.974034 0.481244 22.702841 0.038016 43.017786 10.966588 4.416267 8.467639 -5.374128 
0.727605 101.451965 -0.471286 1.898424 -8.632882 -1.127147 -6.269698 -3.860221 -3.029925 1.003792 -0.488947 -2.743020 0.819856 7.678684 -4.875450 4.384309 2.042334 1.717483 -2.117033 1.624805 -17.576552 -3.568545 -4.922317 21.395562 2.570979 -8.442568 -2.765095 4.955073 -2.582785 1.457964 -4.108531 2.334098 10.144032 1.942740 -2.681867 4.309398 -4.388779 -0.969296 -5.609127 -3.452909 -7.381836 1.578916 -0.756239 -11.562270 2.152720 -19.858279 -2.946142 2.826576 -51.413933 -16.216240 14.240641 -2.274609 -29.075405 12.353261 -3.967815 -11.976972 0.891761 15.501882 5.622682 0.448152 57.523912 0.461450 22.701810 -0.160800 43.687233 10.614806 3.755465 8.343426 -4.943853 
1.236250 101.096146 -1.121398 2.236303 -8.811646 -1.726549 -6.776204 -4.128579 -3.326815 0.579300 -0.870741 -1.841156 1.442709 8.356621 -5.625238 4.768085 1.930109 1.423490 -3.179621 1.442159 -21.904065 -3.177038 -6.236404 26.883592 2.343315 -10.269070 -0.431072 5.011033 -2.409338 1.410815 -4.392653 1.974794 10.936410 1.800096 -2.567015 4.169568 -4.744749 -0.886805 -5.628171 -3.556343 -6.816213 1.098067 -0.938593 -10.948989 2.048079 -19.577659 -3.676984 2.691172 -50.519933 -16.822800 14.155238 -2.302485 -30.140238 12.106631 -2.509003 -12.093700 0.891896 15.388807 5.588209 0.422416 57.558427 0.382519 22.791938 -0.223306 44.066489 9.903005 2.216378 8.583485 -5.374057 
1.411572 100.644402 -1.830994 2.835356 -9.033015 -2.413760 -7.273974 -4.326595 -3.279846 0.073340 -1.549647 -1.561813 2.232435 9.132728 -6.308592 5.024048 1.793640 1.170635 -4.531118 1.213771 -26.095415 -2.811355 -7.151251 33.155045 2.323153 -10.260742 -0.015536 4.941680 -2.236651 1.302817 -4.636161 1.572035 11.703318 1.503102 -2.505597 4.191289 -5.274909 -0.792245 -5.785598 -3.625962 -6.228824 0.664818 -0.964083 -10.352248 1.239709 -19.548450 -4.356234 2.381191 -49.126709 -17.059067 14.012376 -2.061431 -31.570377 11.783269 -2.074489 -11.785431 0.860468 15.388649 5.566670 0.321296 57.811721 0.218599 22.786849 -0.328881 44.497653 9.206637 1.738659 8.332626 -5.638421 
